<svg xmlns="http://www.w3.org/2000/svg" xmlns:xlink="http://www.w3.org/1999/xlink" width="500" zoomAndPan="magnify" viewBox="0 0 375 374.999991" height="500" preserveAspectRatio="xMidYMid meet" version="1.0"><rect x="-37.5" width="450" fill="#ffffff" y="-37.499999" height="449.999989" fill-opacity="1"/><rect x="-37.5" width="450" fill="#ffffff" y="-37.499999" height="449.999989" fill-opacity="1"/><rect x="-37.5" width="450" fill="#ffffff" y="-37.499999" height="449.999989" fill-opacity="1"/><path fill="#f2f2f2" d="M 313.113281 293.488281 L 61.679688 293.488281 C 51.859375 293.488281 43.636719 285.71875 43.636719 275.6875 L 43.636719 101.839844 C 43.636719 101.25 43.667969 100.664062 43.726562 100.074219 C 43.785156 99.488281 43.871094 98.90625 43.988281 98.328125 C 44.105469 97.746094 44.25 97.175781 44.421875 96.613281 C 44.59375 96.046875 44.792969 95.492188 45.019531 94.949219 C 45.246094 94.402344 45.5 93.871094 45.777344 93.351562 C 46.054688 92.832031 46.359375 92.324219 46.6875 91.835938 C 47.015625 91.34375 47.367188 90.871094 47.742188 90.414062 C 48.117188 89.960938 48.515625 89.523438 48.933594 89.105469 C 49.351562 88.6875 49.785156 88.292969 50.242188 87.917969 C 50.699219 87.542969 51.175781 87.195312 51.664062 86.867188 C 52.15625 86.539062 52.660156 86.234375 53.183594 85.957031 C 53.703125 85.679688 54.238281 85.425781 54.78125 85.199219 C 55.328125 84.976562 55.882812 84.777344 56.449219 84.605469 C 57.011719 84.433594 57.585938 84.289062 58.164062 84.175781 C 58.742188 84.058594 59.324219 83.972656 59.914062 83.914062 C 60.5 83.855469 61.089844 83.824219 61.679688 83.824219 L 313.113281 83.824219 C 322.933594 83.824219 331.15625 91.90625 331.15625 101.859375 L 331.15625 275.464844 C 330.933594 285.738281 322.933594 293.496094 313.113281 293.496094 Z M 313.113281 293.488281 " fill-opacity="1" fill-rule="nonzero"/><path fill="#221f1f" d="M 79.582031 293.488281 L 187.152344 214.8125 L 187.835938 210.25 L 76.886719 130.597656 L 76.660156 289.609375 Z M 79.582031 293.488281 " fill-opacity="0.098" fill-rule="nonzero"/><path fill="#d44c3d" d="M 61.679688 293.488281 C 51.722656 293.488281 43.636719 285.71875 43.636719 275.6875 L 43.636719 101.609375 C 43.636719 91.566406 51.722656 89.753906 61.679688 89.753906 C 71.636719 89.753906 79.726562 91.816406 79.726562 101.609375 L 79.726562 293.480469 Z M 61.679688 293.488281 " fill-opacity="1" fill-rule="nonzero"/><path fill="#d44c3d" d="M 61.679688 92.484375 C 74.46875 92.484375 76.984375 96.363281 76.984375 101.609375 L 76.984375 290.964844 L 61.679688 290.964844 C 53.234375 290.964844 46.375 284.121094 46.375 275.671875 L 46.375 101.609375 C 46.152344 96.21875 48.890625 92.484375 61.679688 92.484375 Z M 61.679688 89.96875 C 51.722656 89.976562 43.636719 92.023438 43.636719 101.609375 L 43.636719 275.445312 C 43.625 276.039062 43.648438 276.628906 43.699219 277.222656 C 43.75 277.8125 43.828125 278.398438 43.9375 278.980469 C 44.046875 279.5625 44.1875 280.140625 44.355469 280.710938 C 44.523438 281.277344 44.714844 281.835938 44.941406 282.386719 C 45.164062 282.9375 45.414062 283.472656 45.691406 283.996094 C 45.96875 284.523438 46.269531 285.03125 46.597656 285.527344 C 46.925781 286.019531 47.277344 286.496094 47.652344 286.957031 C 48.027344 287.414062 48.425781 287.855469 48.84375 288.273438 C 49.265625 288.691406 49.703125 289.089844 50.164062 289.464844 C 50.621094 289.839844 51.101562 290.191406 51.59375 290.519531 C 52.089844 290.847656 52.597656 291.148438 53.125 291.425781 C 53.648438 291.703125 54.183594 291.953125 54.734375 292.175781 C 55.285156 292.398438 55.84375 292.59375 56.414062 292.761719 C 56.984375 292.929688 57.558594 293.066406 58.140625 293.175781 C 58.726562 293.285156 59.3125 293.367188 59.902344 293.417969 C 60.496094 293.46875 61.085938 293.488281 61.679688 293.480469 L 79.726562 293.480469 L 79.726562 101.609375 C 79.582031 91.800781 71.726562 89.976562 61.679688 89.976562 Z M 313.113281 92.484375 C 324.757812 92.484375 328.417969 94.765625 328.417969 101.160156 L 328.417969 275.914062 C 328.417969 284.355469 321.570312 291.207031 313.113281 291.207031 L 297.808594 291.207031 L 297.808594 101.160156 C 297.582031 94.539062 301.464844 92.484375 313.113281 92.484375 Z M 313.113281 89.96875 C 303.066406 89.96875 295.066406 91.332031 295.066406 101.148438 L 295.066406 293.703125 L 313.113281 293.703125 C 323.160156 293.703125 331.15625 285.621094 331.15625 275.671875 L 331.15625 100.925781 C 330.933594 91.109375 322.933594 89.96875 313.113281 89.96875 Z M 313.113281 89.96875 " fill-opacity="1" fill-rule="nonzero"/><path fill="#d44c3d" d="M 313.113281 293.488281 L 295.066406 293.488281 L 295.066406 101.160156 C 295.066406 91.117188 303.15625 89.976562 313.113281 89.976562 C 323.070312 89.976562 331.15625 91.34375 331.15625 101.160156 L 331.15625 275.914062 C 331.144531 276.496094 331.105469 277.074219 331.035156 277.652344 C 330.96875 278.230469 330.871094 278.800781 330.746094 279.371094 C 330.621094 279.9375 330.46875 280.5 330.289062 281.054688 C 330.109375 281.605469 329.90625 282.152344 329.671875 282.683594 C 329.441406 283.21875 329.183594 283.738281 328.902344 284.246094 C 328.617188 284.757812 328.3125 285.25 327.980469 285.730469 C 327.652344 286.207031 327.296875 286.667969 326.921875 287.113281 C 326.546875 287.558594 326.148438 287.984375 325.734375 288.390625 C 325.316406 288.796875 324.882812 289.179688 324.425781 289.542969 C 323.972656 289.910156 323.5 290.25 323.015625 290.566406 C 322.527344 290.886719 322.023438 291.179688 321.507812 291.449219 C 320.992188 291.71875 320.464844 291.960938 319.925781 292.179688 C 319.386719 292.398438 318.835938 292.589844 318.277344 292.753906 C 317.71875 292.917969 317.152344 293.054688 316.582031 293.164062 C 316.011719 293.277344 315.433594 293.355469 314.855469 293.410156 C 314.277344 293.464844 313.695312 293.492188 313.113281 293.488281 Z M 313.113281 293.488281 " fill-opacity="1" fill-rule="nonzero"/><path fill="#221f1f" d="M 236.148438 293.488281 L 45.234375 109.242188 L 55.28125 113.347656 L 188.285156 208.96875 L 331.148438 104.121094 L 331.148438 275.914062 C 331.148438 276.5 331.117188 277.085938 331.054688 277.667969 C 330.996094 278.253906 330.90625 278.832031 330.789062 279.410156 C 330.671875 279.984375 330.527344 280.550781 330.351562 281.113281 C 330.179688 281.675781 329.980469 282.226562 329.75 282.765625 C 329.523438 283.308594 329.269531 283.835938 328.992188 284.355469 C 328.710938 284.871094 328.40625 285.371094 328.078125 285.859375 C 327.746094 286.34375 327.394531 286.8125 327.019531 287.265625 C 326.644531 287.714844 326.246094 288.148438 325.828125 288.5625 C 325.410156 288.972656 324.972656 289.363281 324.515625 289.734375 C 324.058594 290.105469 323.585938 290.449219 323.09375 290.773438 C 322.605469 291.09375 322.097656 291.394531 321.578125 291.664062 C 321.058594 291.9375 320.523438 292.1875 319.980469 292.40625 C 319.4375 292.625 318.882812 292.820312 318.316406 292.984375 C 317.753906 293.152344 317.183594 293.289062 316.605469 293.398438 C 316.03125 293.507812 315.449219 293.589844 314.863281 293.640625 C 314.277344 293.695312 313.691406 293.71875 313.105469 293.714844 Z M 236.148438 293.488281 " fill-opacity="0.0784" fill-rule="nonzero"/><path fill="#d44c3d" d="M 187.0625 215.039062 L 51.398438 116.679688 C 43.3125 110.75 41.117188 99.34375 47.058594 91.351562 C 53 83.359375 64.402344 81.535156 72.636719 87.472656 L 187.28125 170.769531 L 302.605469 86.339844 C 310.695312 80.414062 321.792969 82.234375 327.726562 90.445312 C 333.65625 98.527344 331.832031 109.617188 323.617188 115.546875 Z M 187.0625 215.039062 " fill-opacity="1" fill-rule="nonzero"/><path fill="#d44c3d" d="M 313.113281 85.640625 C 317.910156 85.640625 322.703125 87.921875 325.675781 92.035156 C 330.476562 98.878906 329.089844 108.46875 322.261719 113.589844 L 187.0625 211.851562 L 53 114.628906 C 46.152344 109.601562 44.316406 99.785156 49.027344 93.074219 C 51.769531 88.972656 56.578125 86.457031 61.816406 86.457031 C 65.230469 86.457031 68.4375 87.371094 70.945312 89.421875 L 185.347656 172.496094 L 186.949219 173.410156 L 188.546875 172.496094 L 303.757812 88.136719 C 306.722656 86.539062 309.6875 85.621094 313.121094 85.621094 Z M 313.113281 82.898438 C 309.453125 82.898438 305.5625 83.816406 302.597656 86.3125 L 187.28125 170.761719 L 72.410156 87.238281 C 69.445312 84.957031 65.5625 83.824219 61.679688 83.824219 C 55.972656 84.050781 50.265625 86.5625 46.835938 91.367188 C 41.128906 99.453125 43.417969 110.542969 51.398438 116.472656 L 187.0625 215.039062 L 323.617188 115.527344 C 324.09375 115.179688 324.550781 114.8125 324.988281 114.421875 C 325.425781 114.027344 325.84375 113.617188 326.242188 113.183594 C 326.640625 112.753906 327.019531 112.300781 327.375 111.832031 C 327.726562 111.363281 328.058594 110.878906 328.367188 110.378906 C 328.675781 109.878906 328.957031 109.363281 329.214844 108.835938 C 329.472656 108.308594 329.703125 107.769531 329.910156 107.21875 C 330.113281 106.667969 330.292969 106.105469 330.441406 105.539062 C 330.59375 104.972656 330.714844 104.398438 330.8125 103.816406 C 330.90625 103.238281 330.972656 102.652344 331.011719 102.066406 C 331.046875 101.480469 331.058594 100.894531 331.039062 100.304688 C 331.019531 99.71875 330.972656 99.132812 330.898438 98.550781 C 330.820312 97.96875 330.71875 97.390625 330.585938 96.816406 C 330.453125 96.246094 330.292969 95.679688 330.109375 95.125 C 329.921875 94.566406 329.707031 94.019531 329.46875 93.484375 C 329.226562 92.945312 328.960938 92.421875 328.671875 91.914062 C 328.378906 91.402344 328.0625 90.90625 327.726562 90.425781 C 324.066406 85.628906 318.59375 82.882812 313.113281 82.882812 Z M 313.113281 82.898438 " fill-opacity="1" fill-rule="nonzero"/></svg>