<svg xmlns="http://www.w3.org/2000/svg" xmlns:xlink="http://www.w3.org/1999/xlink" width="500" zoomAndPan="magnify" viewBox="0 0 375 374.999991" height="500" preserveAspectRatio="xMidYMid meet" version="1.0"><defs><clipPath id="a1a0809035"><path d="M 37.117188 37.5 L 337.867188 37.5 L 337.867188 338.25 L 37.117188 338.25 Z M 37.117188 37.5 " clip-rule="nonzero"/></clipPath></defs><rect x="-37.5" width="450" fill="#ffffff" y="-37.499999" height="449.999989" fill-opacity="1"/><rect x="-37.5" width="450" fill="#ffffff" y="-37.499999" height="449.999989" fill-opacity="1"/><rect x="-37.5" width="450" fill="#ffffff" y="-37.499999" height="449.999989" fill-opacity="1"/><g clip-path="url(#a1a0809035)"><path fill="#000000" d="M 312.742188 37.5 L 62.394531 37.5 C 48.550781 37.5 37.417969 48.785156 37.417969 62.476562 L 37.417969 313.273438 C 37.417969 327.117188 48.703125 338.25 62.394531 338.25 L 312.589844 338.25 C 326.433594 338.25 337.566406 326.964844 337.566406 313.273438 L 337.566406 62.476562 C 337.71875 48.785156 326.582031 37.5 312.742188 37.5 Z M 126.335938 285.59375 L 81.953125 285.59375 L 81.953125 152.292969 L 126.335938 152.292969 Z M 104.066406 136.195312 C 90.074219 136.195312 78.792969 124.910156 78.792969 110.917969 C 78.792969 96.929688 90.074219 85.644531 104.066406 85.644531 C 118.058594 85.644531 129.34375 96.929688 129.34375 110.917969 C 129.34375 124.910156 118.058594 136.195312 104.066406 136.195312 Z M 293.335938 285.59375 L 248.800781 285.59375 L 247.746094 206.457031 C 247.746094 206.457031 248.800781 185.390625 225.78125 185.542969 C 202.761719 185.695312 199.605469 206.457031 199.605469 206.457031 L 199.605469 285.59375 L 154.769531 285.59375 L 154.769531 152.292969 L 197.796875 152.292969 L 197.796875 170.648438 C 197.796875 170.648438 199.605469 164.628906 209.535156 157.558594 C 219.464844 150.488281 235.863281 148.984375 242.933594 149.285156 C 250.003906 149.585938 259.632812 148.382812 275.730469 159.515625 C 293.03125 171.402344 293.484375 202.542969 293.484375 202.542969 Z M 293.335938 285.59375 " fill-opacity="1" fill-rule="nonzero"/></g></svg>